<svg width="24" height="24" viewBox="0 0 24 24" fill="none" xmlns="http://www.w3.org/2000/svg">
<path d="M7.49426 2.08337C4.50426 2.08337 2.08301 4.51004 2.08301 7.50004C2.08301 10.49 4.50426 12.9167 7.49426 12.9167C10.4897 12.9167 12.9163 10.49 12.9163 7.50004C12.9163 4.51004 10.4897 2.08337 7.49426 2.08337ZM7.49967 11.8334C5.10551 11.8334 3.16634 9.89421 3.16634 7.50004C3.16634 5.10587 5.10551 3.16671 7.49967 3.16671C9.89384 3.16671 11.833 5.10587 11.833 7.50004C11.833 9.89421 9.89384 11.8334 7.49967 11.8334ZM7.77051 4.79171H6.95801V8.04171L9.80176 9.74796L10.208 9.08171L7.77051 7.63546V4.79171Z" fill="#4D6450"/>
<path d="M15.6898 3.21005L5.32985 12.4901C4.68985 13.0701 5.04985 14.1401 5.90985 14.2201L13.9998 15.0001L9.14984 21.76C8.92984 22.07 8.95984 22.5 9.22984 22.7701C9.52984 23.07 9.99985 23.0801 10.3098 22.7901L20.6698 13.5101C21.3098 12.9301 20.9498 11.8601 20.0898 11.7801L11.9998 11.0001L16.8498 4.24005C17.0698 3.93005 17.0398 3.50005 16.7698 3.23005C16.4698 2.93005 15.9998 2.92005 15.6898 3.21005Z" fill="#4D6450"/>
</svg>
