<svg width="16" height="24" viewBox="0 0 16 24" fill="none" xmlns="http://www.w3.org/2000/svg">
<path d="M11.0051 9.5H5.0051C4.4551 9.5 4.0051 9.95 4.0051 10.5V22.5C4.0051 23.05 4.4551 23.5 5.0051 23.5H11.0051C11.5551 23.5 12.0051 23.05 12.0051 22.5V10.5C12.0051 9.95 11.5551 9.5 11.0051 9.5ZM10.0051 21.5H6.0051V11.5H10.0051V21.5Z" fill="#4D6450"/>
<path d="M8.0051 14.5C8.55738 14.5 9.0051 14.0523 9.0051 13.5C9.0051 12.9477 8.55738 12.5 8.0051 12.5C7.45281 12.5 7.0051 12.9477 7.0051 13.5C7.0051 14.0523 7.45281 14.5 8.0051 14.5Z" fill="#4D6450"/>
<path d="M3.0551 6.55L4.4651 7.96C5.3751 7.06 6.6251 6.5 8.0051 6.5C9.3851 6.5 10.6351 7.06 11.5451 7.96L12.9551 6.55C11.6851 5.28 9.9351 4.5 8.0051 4.5C6.0751 4.5 4.3251 5.28 3.0551 6.55ZM8.0051 0.5C4.9651 0.5 2.2151 1.73 0.225098 3.72L1.6351 5.13C3.2651 3.51 5.5151 2.5 8.0051 2.5C10.4951 2.5 12.7451 3.51 14.3651 5.14L15.7751 3.73C13.7951 1.73 11.0451 0.5 8.0051 0.5Z" fill="#4D6450"/>
</svg>
