<svg xmlns="http://www.w3.org/2000/svg" width="24" height="24" viewBox="0 0 512 512">
<path d="M 249 30 L 248 31 L 246 31 L 245 32 L 244 32 L 242 34 L 241 34 L 236 39 L 236 40 L 235 41 L 235 42 L 234 43 L 234 44 L 233 45 L 233 47 L 232 48 L 232 370 L 231 371 L 230 371 L 228 373 L 227 373 L 224 376 L 223 376 L 220 379 L 219 379 L 211 387 L 211 388 L 208 391 L 208 392 L 206 394 L 206 395 L 205 396 L 205 397 L 204 398 L 204 399 L 203 400 L 203 401 L 202 402 L 202 404 L 201 405 L 201 407 L 200 408 L 200 410 L 199 411 L 199 416 L 198 417 L 198 430 L 199 431 L 199 436 L 200 437 L 200 440 L 201 441 L 201 443 L 202 444 L 202 445 L 204 447 L 206 447 L 207 448 L 210 448 L 211 447 L 212 447 L 213 446 L 214 446 L 214 445 L 215 444 L 215 443 L 216 442 L 216 439 L 215 438 L 215 435 L 214 434 L 214 430 L 213 429 L 213 419 L 214 418 L 214 414 L 215 413 L 215 411 L 216 410 L 216 408 L 217 407 L 217 406 L 218 405 L 218 404 L 219 403 L 219 402 L 222 399 L 222 398 L 230 390 L 231 390 L 234 387 L 235 387 L 237 385 L 238 385 L 240 383 L 241 383 L 246 378 L 246 377 L 247 376 L 247 205 L 248 204 L 263 204 L 264 205 L 264 376 L 265 377 L 265 378 L 270 383 L 271 383 L 273 385 L 274 385 L 276 387 L 277 387 L 280 390 L 281 390 L 289 398 L 289 399 L 292 402 L 292 403 L 293 404 L 293 405 L 294 406 L 294 407 L 295 408 L 295 410 L 296 411 L 296 413 L 297 414 L 297 418 L 298 419 L 298 428 L 297 429 L 297 434 L 296 435 L 296 437 L 295 438 L 295 440 L 294 441 L 294 442 L 293 443 L 293 444 L 291 446 L 291 447 L 289 449 L 289 450 L 282 457 L 281 457 L 278 460 L 277 460 L 276 461 L 275 461 L 274 462 L 273 462 L 272 463 L 271 463 L 270 464 L 268 464 L 267 465 L 265 465 L 264 466 L 248 466 L 247 465 L 244 465 L 243 464 L 241 464 L 240 463 L 238 463 L 236 461 L 235 461 L 234 460 L 233 460 L 232 459 L 231 459 L 230 458 L 226 458 L 225 459 L 224 459 L 221 462 L 221 463 L 220 464 L 220 467 L 221 468 L 221 470 L 223 472 L 224 472 L 225 473 L 226 473 L 228 475 L 229 475 L 230 476 L 231 476 L 232 477 L 234 477 L 235 478 L 237 478 L 238 479 L 240 479 L 241 480 L 245 480 L 246 481 L 266 481 L 267 480 L 270 480 L 271 479 L 274 479 L 275 478 L 276 478 L 277 477 L 279 477 L 280 476 L 281 476 L 282 475 L 283 475 L 285 473 L 286 473 L 287 472 L 288 472 L 291 469 L 292 469 L 301 460 L 301 459 L 303 457 L 303 456 L 305 454 L 305 453 L 306 452 L 306 451 L 307 450 L 307 449 L 308 448 L 308 447 L 309 446 L 309 444 L 310 443 L 310 442 L 311 441 L 311 438 L 312 437 L 312 432 L 313 431 L 313 417 L 312 416 L 312 411 L 311 410 L 311 408 L 310 407 L 310 405 L 309 404 L 309 402 L 308 401 L 308 400 L 307 399 L 307 398 L 306 397 L 306 396 L 305 395 L 305 394 L 303 392 L 303 391 L 300 388 L 300 387 L 292 379 L 291 379 L 288 376 L 287 376 L 284 373 L 283 373 L 281 371 L 280 371 L 279 370 L 279 48 L 278 47 L 278 45 L 277 44 L 277 43 L 276 42 L 276 41 L 275 40 L 275 39 L 269 33 L 268 33 L 267 32 L 266 32 L 265 31 L 263 31 L 262 30 Z" fill="#4D6450"/><path d="M 68 10 L 67 11 L 65 11 L 64 12 L 63 12 L 62 13 L 61 13 L 60 14 L 59 14 L 54 19 L 54 20 L 53 21 L 53 22 L 52 23 L 52 24 L 51 25 L 51 27 L 50 28 L 50 37 L 51 38 L 51 40 L 52 41 L 52 43 L 54 45 L 54 46 L 59 51 L 60 51 L 62 53 L 64 53 L 65 54 L 65 182 L 66 183 L 66 184 L 67 185 L 67 186 L 68 186 L 69 187 L 71 187 L 72 188 L 201 188 L 202 189 L 202 253 L 201 254 L 44 254 L 42 252 L 42 251 L 41 250 L 41 249 L 38 246 L 38 245 L 37 245 L 34 242 L 33 242 L 32 241 L 30 241 L 29 240 L 27 240 L 26 239 L 19 239 L 18 240 L 15 240 L 14 241 L 12 241 L 11 242 L 10 242 L 7 245 L 6 245 L 6 246 L 3 249 L 3 250 L 2 251 L 2 252 L 1 253 L 1 255 L 0 256 L 0 268 L 1 269 L 1 271 L 2 272 L 2 273 L 4 275 L 4 276 L 7 279 L 8 279 L 10 281 L 11 281 L 12 282 L 13 282 L 14 283 L 16 283 L 17 284 L 27 284 L 28 283 L 30 283 L 31 282 L 32 282 L 33 281 L 34 281 L 35 280 L 36 280 L 40 276 L 40 275 L 42 273 L 42 272 L 43 271 L 43 270 L 44 269 L 201 269 L 202 270 L 202 299 L 201 300 L 72 300 L 71 301 L 69 301 L 68 302 L 67 302 L 67 303 L 66 304 L 66 305 L 65 306 L 65 382 L 63 384 L 62 384 L 61 385 L 60 385 L 57 388 L 56 388 L 56 389 L 53 392 L 53 393 L 52 394 L 52 395 L 51 396 L 51 399 L 50 400 L 50 409 L 51 410 L 51 412 L 52 413 L 52 414 L 53 415 L 53 416 L 55 418 L 55 419 L 58 422 L 59 422 L 61 424 L 62 424 L 63 425 L 65 425 L 66 426 L 70 426 L 71 427 L 74 427 L 75 426 L 79 426 L 80 425 L 82 425 L 83 424 L 84 424 L 86 422 L 87 422 L 90 419 L 90 418 L 92 416 L 92 415 L 93 414 L 93 413 L 94 412 L 94 410 L 95 409 L 95 400 L 94 399 L 94 396 L 93 395 L 93 394 L 92 393 L 92 392 L 89 389 L 89 388 L 88 388 L 85 385 L 84 385 L 83 384 L 82 384 L 80 382 L 80 316 L 81 315 L 201 315 L 202 316 L 202 354 L 195 361 L 194 361 L 193 362 L 193 363 L 186 370 L 186 371 L 184 373 L 184 374 L 182 376 L 182 377 L 180 379 L 180 380 L 179 381 L 179 382 L 178 383 L 178 384 L 177 385 L 177 386 L 176 387 L 176 388 L 175 389 L 175 390 L 174 391 L 174 393 L 173 394 L 173 396 L 172 397 L 172 399 L 171 400 L 171 403 L 170 404 L 170 408 L 169 409 L 169 415 L 168 416 L 168 433 L 169 434 L 169 440 L 170 441 L 170 444 L 171 445 L 171 448 L 172 449 L 172 451 L 173 452 L 173 454 L 174 455 L 174 457 L 175 458 L 175 459 L 176 460 L 176 461 L 177 462 L 177 463 L 178 464 L 178 465 L 179 466 L 179 467 L 180 468 L 180 469 L 182 471 L 182 472 L 184 474 L 184 475 L 186 477 L 186 478 L 193 485 L 193 486 L 194 487 L 195 487 L 201 493 L 202 493 L 205 496 L 206 496 L 208 498 L 209 498 L 210 499 L 211 499 L 213 501 L 214 501 L 215 502 L 216 502 L 217 503 L 218 503 L 219 504 L 220 504 L 221 505 L 223 505 L 224 506 L 226 506 L 227 507 L 228 507 L 229 508 L 232 508 L 233 509 L 236 509 L 237 510 L 242 510 L 243 511 L 268 511 L 269 510 L 274 510 L 275 509 L 278 509 L 279 508 L 282 508 L 283 507 L 284 507 L 285 506 L 287 506 L 288 505 L 290 505 L 291 504 L 292 504 L 293 503 L 294 503 L 295 502 L 296 502 L 297 501 L 298 501 L 300 499 L 301 499 L 302 498 L 303 498 L 305 496 L 306 496 L 309 493 L 310 493 L 316 487 L 317 487 L 318 486 L 318 485 L 325 478 L 325 477 L 327 475 L 327 474 L 329 472 L 329 471 L 331 469 L 331 468 L 332 467 L 332 466 L 333 465 L 333 464 L 334 463 L 334 462 L 335 461 L 335 460 L 336 459 L 336 458 L 337 457 L 337 455 L 338 454 L 338 452 L 339 451 L 339 449 L 340 448 L 340 445 L 341 444 L 341 441 L 342 440 L 342 434 L 343 433 L 343 416 L 342 415 L 342 409 L 341 408 L 341 404 L 340 403 L 340 400 L 339 399 L 339 397 L 338 396 L 338 394 L 337 393 L 337 391 L 336 390 L 336 389 L 335 388 L 335 387 L 334 386 L 334 385 L 333 384 L 333 383 L 332 382 L 332 381 L 331 380 L 331 379 L 329 377 L 329 376 L 327 374 L 327 373 L 325 371 L 325 370 L 318 363 L 318 362 L 317 361 L 316 361 L 309 354 L 309 325 L 308 324 L 308 323 L 305 320 L 298 320 L 295 323 L 295 324 L 294 325 L 294 360 L 295 361 L 295 363 L 298 366 L 299 366 L 313 380 L 313 381 L 316 384 L 316 385 L 317 386 L 317 387 L 319 389 L 319 390 L 320 391 L 320 392 L 321 393 L 321 394 L 322 395 L 322 396 L 323 397 L 323 399 L 324 400 L 324 402 L 325 403 L 325 405 L 326 406 L 326 410 L 327 411 L 327 415 L 328 416 L 328 431 L 327 432 L 327 438 L 326 439 L 326 442 L 325 443 L 325 445 L 324 446 L 324 448 L 323 449 L 323 451 L 322 452 L 322 453 L 321 454 L 321 455 L 320 456 L 320 457 L 319 458 L 319 459 L 318 460 L 318 461 L 316 463 L 316 464 L 313 467 L 313 468 L 308 473 L 308 474 L 306 476 L 305 476 L 299 482 L 298 482 L 296 484 L 295 484 L 293 486 L 292 486 L 290 488 L 289 488 L 288 489 L 286 489 L 285 490 L 284 490 L 283 491 L 282 491 L 281 492 L 279 492 L 278 493 L 276 493 L 275 494 L 272 494 L 271 495 L 267 495 L 266 496 L 245 496 L 244 495 L 240 495 L 239 494 L 236 494 L 235 493 L 233 493 L 232 492 L 230 492 L 229 491 L 228 491 L 227 490 L 226 490 L 225 489 L 223 489 L 222 488 L 221 488 L 219 486 L 218 486 L 216 484 L 215 484 L 213 482 L 212 482 L 206 476 L 205 476 L 203 474 L 203 473 L 198 468 L 198 467 L 195 464 L 195 463 L 193 461 L 193 460 L 192 459 L 192 458 L 191 457 L 191 456 L 190 455 L 190 454 L 189 453 L 189 452 L 188 451 L 188 449 L 187 448 L 187 446 L 186 445 L 186 443 L 185 442 L 185 439 L 184 438 L 184 432 L 183 431 L 183 416 L 184 415 L 184 411 L 185 410 L 185 406 L 186 405 L 186 403 L 187 402 L 187 400 L 188 399 L 188 397 L 189 396 L 189 395 L 190 394 L 190 393 L 191 392 L 191 391 L 192 390 L 192 389 L 194 387 L 194 386 L 195 385 L 195 384 L 198 381 L 198 380 L 212 366 L 213 366 L 216 363 L 216 361 L 217 360 L 217 156 L 216 155 L 216 154 L 214 152 L 213 152 L 212 151 L 207 151 L 206 152 L 205 152 L 203 154 L 203 155 L 202 156 L 202 172 L 201 173 L 81 173 L 80 172 L 80 54 L 81 53 L 83 53 L 85 51 L 86 51 L 91 46 L 91 45 L 93 43 L 93 41 L 94 40 L 94 38 L 95 37 L 95 28 L 94 27 L 94 25 L 93 24 L 93 23 L 92 22 L 92 21 L 91 20 L 91 19 L 86 14 L 85 14 L 84 13 L 83 13 L 82 12 L 81 12 L 80 11 L 78 11 L 77 10 Z" fill="#4D6450"/><path d="M 246 0 L 245 1 L 241 1 L 240 2 L 238 2 L 237 3 L 235 3 L 234 4 L 233 4 L 232 5 L 231 5 L 230 6 L 229 6 L 227 8 L 226 8 L 224 10 L 223 10 L 213 20 L 213 21 L 210 24 L 210 25 L 209 26 L 209 27 L 208 28 L 208 29 L 207 30 L 207 31 L 206 32 L 206 33 L 205 34 L 205 36 L 204 37 L 204 40 L 203 41 L 203 45 L 202 46 L 202 129 L 203 130 L 203 131 L 204 132 L 204 133 L 205 133 L 206 134 L 208 134 L 209 135 L 210 135 L 211 134 L 213 134 L 214 133 L 215 133 L 215 132 L 216 131 L 216 130 L 217 129 L 217 49 L 218 48 L 218 44 L 219 43 L 219 41 L 220 40 L 220 38 L 221 37 L 221 36 L 222 35 L 222 34 L 224 32 L 224 31 L 234 21 L 235 21 L 236 20 L 237 20 L 238 19 L 239 19 L 241 17 L 244 17 L 245 16 L 247 16 L 248 15 L 263 15 L 264 16 L 266 16 L 267 17 L 270 17 L 272 19 L 273 19 L 274 20 L 275 20 L 276 21 L 277 21 L 288 32 L 288 33 L 289 34 L 289 35 L 290 36 L 290 37 L 291 38 L 291 39 L 292 40 L 292 43 L 293 44 L 293 48 L 294 49 L 294 297 L 295 298 L 295 299 L 296 300 L 296 301 L 297 301 L 298 302 L 300 302 L 301 303 L 302 303 L 303 302 L 305 302 L 306 301 L 307 301 L 307 300 L 308 299 L 308 298 L 309 297 L 309 292 L 310 291 L 430 291 L 431 292 L 431 409 L 429 411 L 428 411 L 427 412 L 426 412 L 423 415 L 422 415 L 422 416 L 419 419 L 419 420 L 418 421 L 418 422 L 417 423 L 417 426 L 416 427 L 416 436 L 417 437 L 417 439 L 418 440 L 418 441 L 419 442 L 419 443 L 421 445 L 421 446 L 424 449 L 425 449 L 427 451 L 428 451 L 429 452 L 431 452 L 432 453 L 436 453 L 437 454 L 440 454 L 441 453 L 445 453 L 446 452 L 448 452 L 449 451 L 450 451 L 452 449 L 453 449 L 456 446 L 456 445 L 458 443 L 458 442 L 459 441 L 459 440 L 460 439 L 460 437 L 461 436 L 461 427 L 460 426 L 460 423 L 459 422 L 459 421 L 458 420 L 458 419 L 455 416 L 455 415 L 454 415 L 451 412 L 450 412 L 449 411 L 448 411 L 446 409 L 446 281 L 445 280 L 445 279 L 443 277 L 442 277 L 441 276 L 310 276 L 309 275 L 309 214 L 310 213 L 340 213 L 342 215 L 342 216 L 343 217 L 343 218 L 350 225 L 351 225 L 352 226 L 353 226 L 354 227 L 356 227 L 357 228 L 368 228 L 369 227 L 371 227 L 372 226 L 373 226 L 374 225 L 375 225 L 382 218 L 382 217 L 383 216 L 383 214 L 384 213 L 384 211 L 385 210 L 385 201 L 384 200 L 384 198 L 383 197 L 383 196 L 382 195 L 382 194 L 381 193 L 381 192 L 377 188 L 376 188 L 374 186 L 373 186 L 372 185 L 370 185 L 369 184 L 366 184 L 365 183 L 360 183 L 359 184 L 355 184 L 354 185 L 353 185 L 352 186 L 351 186 L 350 187 L 349 187 L 344 192 L 344 193 L 343 194 L 343 195 L 342 196 L 342 197 L 341 198 L 310 198 L 309 197 L 309 125 L 310 124 L 467 124 L 469 126 L 469 128 L 472 131 L 472 132 L 474 134 L 475 134 L 477 136 L 478 136 L 479 137 L 480 137 L 481 138 L 484 138 L 485 139 L 493 139 L 494 138 L 497 138 L 498 137 L 499 137 L 500 136 L 501 136 L 504 133 L 505 133 L 506 132 L 506 131 L 508 129 L 508 128 L 510 126 L 510 124 L 511 123 L 511 110 L 510 109 L 510 107 L 508 105 L 508 104 L 506 102 L 506 101 L 505 100 L 504 100 L 501 97 L 500 97 L 499 96 L 498 96 L 497 95 L 494 95 L 493 94 L 485 94 L 484 95 L 481 95 L 480 96 L 479 96 L 478 97 L 477 97 L 475 99 L 474 99 L 472 101 L 472 102 L 469 105 L 469 107 L 467 109 L 310 109 L 309 108 L 309 46 L 308 45 L 308 41 L 307 40 L 307 37 L 306 36 L 306 34 L 305 33 L 305 32 L 304 31 L 304 30 L 303 29 L 303 28 L 302 27 L 302 26 L 301 25 L 301 24 L 299 22 L 299 21 L 294 16 L 294 15 L 293 15 L 288 10 L 287 10 L 285 8 L 284 8 L 282 6 L 281 6 L 280 5 L 279 5 L 278 4 L 277 4 L 276 3 L 274 3 L 273 2 L 271 2 L 270 1 L 267 1 L 266 0 Z" fill="#4D6450"/>
</svg>